# xmcd
#
# Track frame offsets:
#	150
#	7594
#	21612
#	34259
#	51785
#	63675
#	75189
#	93827
#	107626
#	125005
#	139478
#	152241
#	171705
#
# Disc length: 2522 seconds
#
# Revision: 1
# Processed by: cddbd v1.4b42PL1 Copyright (c) Steve Scherf et al.
# Submitted via: CDmax 1.7.6
#
DISCID=ae09d80d
DTITLE=Various Artist - Poor Little Knitter On The Road
DYEAR=1900
DGENRE=
TTITLE0=Trailer Bride - Poor Little Critter on the Road
TTITLE1=Kelly Hogan and The Rock*A*Teens - Someone Like You
TTITLE2=The Sadies with Catherine Irwin - Walkin' Cane
TTITLE3=Whiskeytown - Silver Wings
TTITLE4=Ground Speed with Nora O'Connor - Poor Old Heartsick Me
TTITLE5=The Blacks - The New World
TTITLE6=Old 97's with John Doe - Cryin' But My Tears Are Far Away
TTITLE7=Anna Fermin and Friends - Love Shack
TTITLE8=Robbie Fulks - The Call of the Wreckin' Ball
TTITLE9=The Handsome Family - Trail of Time
TTITLE10=99 Tales - Baby Out of Jail
TTITLE11=Devil In A Woodpile with Jane Baxter Miller - Rock Island Line
TTITLE12=The Knitters - Why Don't We Try Anymore
EXTD=
EXTT0=
EXTT1=
EXTT2=
EXTT3=
EXTT4=
EXTT5=
EXTT6=
EXTT7=
EXTT8=
EXTT9=
EXTT10=
EXTT11=
EXTT12=
PLAYORDER=
